<?xml version="1.0" encoding="utf-8"?>
<!-- Generator: Adobe Illustrator 19.2.1, SVG Export Plug-In . SVG Version: 6.00 Build 0)  -->
<svg version="1.1" id="Слой_1" xmlns="http://www.w3.org/2000/svg" xmlns:xlink="http://www.w3.org/1999/xlink" x="0px" y="0px"
	 viewBox="0 0 576 576" style="enable-background:new 0 0 576 576;" xml:space="preserve">
<style type="text/css">
	.st0{fill:#0D0F0F;}
</style>
<path class="st0" d="M464,160H112c-8.8,0-16,7.2-16,16v16c0,8.8,7.2,16,16,16h352c8.8,0,16-7.2,16-16v-16
	C480,167.2,472.8,160,464,160z M512,32H64C28.8,32,0,60.8,0,96v128c0,35.2,28.8,64,64,64h448c35.2,0,64-28.8,64-64V96
	C576,60.8,547.2,32,512,32z M528,224c0,8.7-7.3,16-16,16H64c-8.7,0-16-7.3-16-16V96c0-8.7,7.3-16,16-16h448c8.7,0,16,7.3,16,16V224z
	 M208,456c0,22.1-17.9,40-40,40s-40-17.9-40-40c0-16.4,9.8-30.9,25-37.1c12.3-5,18.2-19,13.2-31.3c-5-12.3-18.9-18.2-31.3-13.3
	c-33.4,13.5-55,44.7-55,81.6c0,48.5,39.5,88,88,88s88-39.5,88-88V320h-48V456z M441,342.4c-12.3-4.9-26.3,1-31.3,13.3
	c-5,12.3,1,26.3,13.2,31.3c15.2,6.2,25,20.7,25,37.1c0,22.1-17.9,40-40,40s-40-17.9-40-40V320h-48v104c0,48.5,39.5,88,88,88
	s88-39.5,88-88C496,387.1,474.4,355.9,441,342.4z"/>
</svg>
