<?xml version="1.0" encoding="utf-8"?>
<!-- Generator: Adobe Illustrator 19.2.1, SVG Export Plug-In . SVG Version: 6.00 Build 0)  -->
<svg version="1.1" id="Слой_1" xmlns="http://www.w3.org/2000/svg" xmlns:xlink="http://www.w3.org/1999/xlink" x="0px" y="0px"
	 viewBox="0 0 640 640" style="enable-background:new 0 0 640 640;" xml:space="preserve">
<style type="text/css">
	.st0{fill:#0D0F0F;}
</style>
<path class="st0" d="M630.9,533.1L434.7,379.3c6.3-9.3,12.6-17.6,17.8-23.6c27.1-30.9,43.5-71.4,43.5-115.8
	c0-97.2-78.8-175.1-175.1-175.1c-74.8-0.6-132,41.3-159.4,100.5L38.9,69.1c-10.5-8.2-25.5-6.4-33.7,4.1C-3,83.6-1.2,98.7,9.3,106.9
	L600.4,570c5.3,4.3,10.5,6,14.8,6c7.1,0,14.2-3.2,18.9-9.2C643.2,556.4,641.3,541.3,630.9,533.1z M396.9,349.7L200.3,195.6
	c15.9-45.7,59-83.4,118.9-83.6c71.5,0,128.9,57.4,128.9,127.1c0,31-11.2,60.9-31.6,84.1C410.3,331.1,403.6,339.1,396.9,349.7z
	 M306,400h-33.2c-8-17-17.8-33.3-27.7-47.7l-96.9-76c6.3,30,19.1,57.2,39.5,79.5c16.5,18.8,42.3,58.2,52.2,91.5
	c0,0.3,0.1,0.5,0.1,0.8l127.3,0L306,400z M240.2,518.3c0,6.3,1.9,12.4,5.3,17.7l17.1,25.7c5.3,7.9,17.2,14.3,26.6,14.3H351
	c9.4,0,21.4-6.4,26.6-14.3l17.1-25.7c2.9-4.4,5.3-12.4,5.3-17.7l0.1-38.4H239.2L240.2,518.3z"/>
</svg>
