<?xml version="1.0" encoding="utf-8"?>
<!-- Generator: Adobe Illustrator 19.2.1, SVG Export Plug-In . SVG Version: 6.00 Build 0)  -->
<svg version="1.1" id="Слой_1" xmlns="http://www.w3.org/2000/svg" xmlns:xlink="http://www.w3.org/1999/xlink" x="0px" y="0px"
	 viewBox="0 0 640 640" style="enable-background:new 0 0 640 640;" xml:space="preserve">
<style type="text/css">
	.st0{fill:#0D0F0F;}
</style>
<path class="st0" d="M107.1,351.3l-55.5,32c-7.5,4.1-12.3,12.1-12.4,20.9c0,8.6,4.6,16.6,12.1,21c7.6,4.3,16.9,4.1,24.2-0.4l55.5-32
	c11.1-6.8,14.9-21.3,8.4-32.5C133,348.9,118.5,344.9,107.1,351.3z M131.1,119.2l-55.5-32c-7.4-4.5-16.6-4.6-24.3-0.4
	c-7.5,4.4-12.1,12.4-12.1,21c0.1,8.8,4.9,16.8,12.4,20.9l55.5,32c7.4,4.6,16.7,4.7,24.3,0.4c7.5-4.4,12.1-12.4,12.1-21
	C143.4,131.4,138.6,123.4,131.1,119.2z M112,256c0-13.3-10.8-24-24-24H24c-13.3,0-24,10.8-24,24s10.8,24,24,24h64
	C101.3,280,112,269.3,112,256z M521,164c4.1,0,8.3-1.1,12-3.3l55.4-32c11.3-6.8,14.9-21.3,8.4-32.5c-6.5-11.4-21-15.4-32.4-9
	l-55.4,32c-9.5,5.4-14,16.5-11.3,27C500.6,156.7,510.1,164,521,164z M616,232h-64c-13.3,0-24,10.8-24,24s10.8,24,24,24h64
	c13.3,0,24-10.8,24-24S629.3,232,616,232z M588.4,383.3l-55.5-32c-7.4-4.5-16.6-4.6-24.3-0.4c-7.5,4.4-12.1,12.4-12.1,21
	c0.1,8.8,4.9,16.8,12.4,20.9l55.5,32c11.4,6.4,25.9,2.4,32.4-9C603.3,404.5,599.5,390,588.4,383.3z M320,64
	c-102,0.3-176,83-176,175.1c0,44.4,16.4,84.8,43.5,115.8c16.5,18.8,42.4,58.3,52.2,91.5c0,0.3,0.1,0.5,0.1,0.8l160.3,0
	c0-0.3,0.1-0.5,0.1-0.8c9.9-33.2,35.7-72.6,52.2-91.5c27.1-30.1,43.5-70.5,43.5-115.8C496,142.8,417.2,64,320,64z M416.4,324.1
	c-15.7,17.9-35,46.3-49,75.9h-94.6c-14-29.6-33.4-58-49-75.9c-20.5-23.3-31.7-54-31.7-85c0-61.8,48.1-126.9,127.1-127.1
	c71.5,0,128.9,57.4,128.9,127.1C448,270.1,436.8,300.8,416.4,324.1z M240.1,518.4c0,6.3,1.9,12.4,5.4,17.7l17.1,25.7
	c5.3,7.9,17.2,14.3,26.6,14.3h61.7c9.4,0,21.4-6.4,26.6-14.3l17.1-25.7c3-4.5,5.4-12.4,5.4-17.7V480l-159.9,0V518.4z M304,144
	c-44.1,0-80,35.9-80,80c0,8.8,7.2,16,16,16s16-7.2,16-16c0-26.5,21.5-48,48-48c8.8,0,16-7.1,16-16S312.8,144,304,144z"/>
</svg>
