<?xml version="1.0" encoding="utf-8"?>
<!-- Generator: Adobe Illustrator 19.2.1, SVG Export Plug-In . SVG Version: 6.00 Build 0)  -->
<svg version="1.1" id="Слой_1" xmlns="http://www.w3.org/2000/svg" xmlns:xlink="http://www.w3.org/1999/xlink" x="0px" y="0px"
	 viewBox="0 0 640 640" style="enable-background:new 0 0 640 640;" xml:space="preserve">
<style type="text/css">
	.st0{fill:#0D0F0F;}
</style>
<path class="st0" d="M240.1,518.3c0,6.3,1.8,12.4,5.3,17.7l17.1,25.7c5.3,7.9,17.2,14.3,26.6,14.3h61.7c9.4,0,21.4-6.4,26.6-14.3
	l17.1-25.7c2.9-4.4,5.3-12.4,5.3-17.7l0.1-39.2H240L240.1,518.3z M320,64c-102,0.3-176,83-176,175.1c0,44.4,16.4,84.8,43.6,115.8
	c16.5,18.8,42.3,58.2,52.2,91.5c0,0.3,0.1,0.5,0.1,0.8h160.2c0-0.3,0.1-0.5,0.1-0.8c9.9-33.2,35.7-72.6,52.2-91.5
	c27.2-30.1,43.6-70.5,43.6-115.8C496,142.8,417.2,64,320,64z M416.4,324.1c-15.7,17.9-35,46.3-49.1,75.9h-94.6
	c-14-29.6-33.4-58-49-75.9c-20.5-23.3-31.7-54-31.7-85c0-61.8,48.1-126.9,127.1-127.1c71.5,0,128.9,57.4,128.9,127.1
	C448,270.1,436.8,300.8,416.4,324.1z M304,144c-44.1,0-80,35.9-80,80c0,8.8,7.2,16,16,16s16-7.2,16-16c0-26.5,21.5-48,48-48
	c8.8,0,16-7.1,16-16C320,151.2,312.8,144,304,144z"/>
</svg>
