<?xml version="1.0" encoding="utf-8"?>
<!-- Generator: Adobe Illustrator 19.2.1, SVG Export Plug-In . SVG Version: 6.00 Build 0)  -->
<svg version="1.1" id="Слой_1" xmlns="http://www.w3.org/2000/svg" xmlns:xlink="http://www.w3.org/1999/xlink" x="0px" y="0px"
	 viewBox="0 0 640 640" style="enable-background:new 0 0 640 640;" xml:space="preserve">
<style type="text/css">
	.st0{fill:#0D0F0F;}
</style>
<path class="st0" d="M630.9,533.1l-153-119.9c61.3-75.4,98.2-171.3,98.2-275.8c0-24.6-16.7-45.5-40.6-51l-91.3-21.1
	c-24.5-5.7-49.7,7-59.9,30.2l-42.3,98.6c-9.1,21.3-2.9,46.4,15,61.1l33.5,27.5c-8.2,14.2-17.7,27.6-28.2,40.1L38.9,69.1
	c-10.5-8.2-25.5-6.4-33.7,4.1C-3,83.6-1.2,98.7,9.3,106.9L600.4,570c5.3,4.3,10.5,6,14.8,6c7.1,0,14.2-3.2,18.9-9.2
	C643.2,556.4,641.3,541.3,630.9,533.1z M399.2,352.2c16.5-20,31.1-41.7,42.6-65.1c4.9-10,2.3-22.1-6.3-29.1l-48.8-40
	c-1.5-1.2-2-3.3-1.3-5.1l42.1-98.3c0.7-1.6,2.3-2.6,4-2.6c0.3,0,0.6,0,1,0.1l91.3,21.1c2,0.5,3.3,2.1,3.3,4.2
	c0,93.3-33.3,178.8-88.2,246L399.2,352.2z M137.5,528c-2.1,0-3.8-1.3-4.2-3.3l-21.1-91.4c-0.5-2,0.7-4.2,2.5-5l98.3-42.1
	c1.7-0.8,3.8-0.3,4.9,1.1l40,48.9c7.1,8.6,19.2,11.3,29.1,6.3c14.6-7.2,28.5-15.5,41.8-24.7l-40.1-31.4c-2.1,1.3-4,2.9-6.2,4.1
	l-27.4-33.5c-14.6-18-39.8-24.2-61.2-14.9l-98.2,42.1c-23.3,10.1-36.1,35.2-30.3,59.9l21.1,91.3c5.5,23.8,26.5,40.5,51,40.5
	c102.7,0,196.1-35.7,271.8-95l-39.1-30.6C305.2,498.9,224.8,528,137.5,528z"/>
</svg>
