<?xml version="1.0" encoding="utf-8"?>
<!-- Generator: Adobe Illustrator 19.2.1, SVG Export Plug-In . SVG Version: 6.00 Build 0)  -->
<svg version="1.1" id="Слой_1" xmlns="http://www.w3.org/2000/svg" xmlns:xlink="http://www.w3.org/1999/xlink" x="0px" y="0px"
	 viewBox="0 0 640 640" style="enable-background:new 0 0 640 640;" xml:space="preserve">
<style type="text/css">
	.st0{fill:#0D0F0F;}
</style>
<path class="st0" d="M456,224c22.1,0,40-17.9,40-40s-17.9-40-40-40s-40,17.9-40,40S433.9,224,456,224z M576,64H336
	c-35.4,0-64,28.7-64,64v384c0,35.3,28.6,64,64,64h240c35.3,0,64-28.7,64-64V128C640,92.7,611.3,64,576,64z M592,512
	c0,8.8-7.2,16-16,16H336c-8.8,0-16-7.2-16-16V128c0-8.8,7.2-16,16-16h240c8.8,0,16,7.2,16,16V512z M456,288
	c-57.4,0-104,46.6-104,104s46.6,104,104,104s104-46.6,104-104S513.4,288,456,288z M456,448c-30.9,0-56-25.1-56-56s25.1-56,56-56
	s56,25.1,56,56S486.9,448,456,448z M184,144c-22.1,0-40,17.9-40,40s17.9,40,40,40s40-17.9,40-40S206.1,144,184,144z M184,336
	c15.7,0,29.8,6.5,40,16.9v-56.6c-12.3-5.2-25.8-8.3-40-8.3c-57.4,0-104,46.6-104,104s46.6,104,104,104c14.2,0,27.7-3.1,40-8.3v-56.6
	c-10.2,10.4-24.3,16.9-40,16.9c-30.9,0-56-25.1-56-56S153.1,336,184,336z M264.1,64H64C28.6,64,0,92.7,0,128v384
	c0,35.3,28.6,64,64,64h200.1c-11.9-13.2-20.3-29.7-23.4-48H64c-8.8,0-16-7.2-16-16V128c0-8.8,7.2-16,16-16h177.6
	C244.7,93.7,253,77.2,264.1,64z"/>
</svg>
