<?xml version="1.0" encoding="utf-8"?>
<!-- Generator: Adobe Illustrator 19.2.1, SVG Export Plug-In . SVG Version: 6.00 Build 0)  -->
<svg version="1.1" id="Слой_1" xmlns="http://www.w3.org/2000/svg" xmlns:xlink="http://www.w3.org/1999/xlink" x="0px" y="0px"
	 viewBox="0 0 576 576" style="enable-background:new 0 0 576 576;" xml:space="preserve">
<style type="text/css">
	.st0{fill:#0D0F0F;}
</style>
<path class="st0" d="M288,288c0-53.9,42.1-96,96-96c53,0,96,42.1,96,96c0,53-43,96-96,96C330.1,384,288,341,288,288z M0,288
	C0,181.1,86,96,192,96h192c106,0,192,85.1,192,192c0,106-86,192-192,192H192C86,480,0,394,0,288z M48,288c0,79.5,64.5,144,144,144
	h192c79.5,0,144-64.5,144-144s-64.5-144-144-144H192C112.5,144,48,208.5,48,288z"/>
</svg>
