<?xml version="1.0" encoding="utf-8"?>
<!-- Generator: Adobe Illustrator 19.2.1, SVG Export Plug-In . SVG Version: 6.00 Build 0)  -->
<svg version="1.1" id="Слой_1" xmlns="http://www.w3.org/2000/svg" xmlns:xlink="http://www.w3.org/1999/xlink" x="0px" y="0px"
	 viewBox="0 0 576 576" style="enable-background:new 0 0 576 576;" xml:space="preserve">
<style type="text/css">
	.st0{fill:#0D0F0F;}
</style>
<path class="st0" d="M192,192c53,0,96,42.1,96,96c0,53-43,96-96,96c-53.9,0-96-43-96-96C96,234.1,138.1,192,192,192z M144,288
	c0,26.5,21.5,48,48,48s48-21.5,48-48s-21.5-48-48-48S144,261.5,144,288z M384,480H192C86,480,0,394,0,288C0,181.1,86,96,192,96h192
	c106,0,192,85.1,192,192C576,394,490,480,384,480z M384,144H192c-79.5,0-144,64.5-144,144s64.5,144,144,144h192
	c79.5,0,144-64.5,144-144S463.5,144,384,144z"/>
</svg>
