<?xml version="1.0" encoding="utf-8"?>
<!-- Generator: Adobe Illustrator 19.2.1, SVG Export Plug-In . SVG Version: 6.00 Build 0)  -->
<svg version="1.1" id="Слой_1" xmlns="http://www.w3.org/2000/svg" xmlns:xlink="http://www.w3.org/1999/xlink" x="0px" y="0px"
	 viewBox="0 0 640 640" style="enable-background:new 0 0 640 640;" xml:space="preserve">
<style type="text/css">
	.st0{fill:#0D0F0F;}
</style>
<path class="st0" d="M630.9,533.1l-88.8-69.6c41.9-36.7,66-88.6,66-143.5c0-57.1-25.8-111.1-70.9-147.1c-4.5-3.6-9.8-5.4-15.2-5.4
	c-6.9,0-13.8,3-18.6,8.8c-8.4,10.3-6.9,25.4,3.3,33.8c33.9,26.9,53.3,67.3,53.3,110c0,42.7-19.4,83.1-53.3,110.9c-1,0.9-1.6,2-2.5,3
	L460,399.2c0.5,0,1,0.3,1.5,0.3c5.3,0,10.8-1.8,15.2-5.4c22.5-18.5,35.4-45.4,35.4-74.1c0-28.6-12.9-55.6-35.4-74.1
	c-4.5-3.6-9.9-5.4-15.2-5.4c-6.9,0-13.8,3-18.5,8.8c-8.4,10.3-6.9,25.4,3.4,33.8c11.3,9.3,17.8,22.7,17.8,36.9s-6.5,27.6-17.8,36.9
	c-7.7,6.3-10.5,16.4-7.8,25.4l-54.4-42.6V128c0-12.6-7.3-24-18.8-29.2c-4.2-1.9-8.7-2.8-13.2-2.8c-7.7,0-15.3,2.8-21.3,8.1
	L215,207.1L38.9,69.1c-10.5-8.2-25.5-6.4-33.7,4.1C-3,83.6-1.2,98.7,9.3,106.9L600.4,570c5.3,4.3,10.5,6,14.8,6
	c7.1,0,14.2-3.2,18.9-9.2C643.2,556.4,641.3,541.3,630.9,533.1z M336.1,302l-82.7-64.8l82.7-73.6V302z M336.1,476.4L214.2,368H112.1
	v-95.1h30l-53.3-42.6c-14.7,8.2-24.8,22.8-24.8,41.7v96c0,26.5,21.5,47.1,48,47.1h83.8L330.8,535c6,6.2,13.6,9,21.3,9
	c4.4,0,9-0.9,13.2-2.8c11.5-5.2,18.8-16.6,18.8-29.2v-50.3l-48-37.6V476.4z"/>
</svg>
