<?xml version="1.0" encoding="utf-8"?>
<!-- Generator: Adobe Illustrator 19.2.1, SVG Export Plug-In . SVG Version: 6.00 Build 0)  -->
<svg version="1.1" id="Слой_1" xmlns="http://www.w3.org/2000/svg" xmlns:xlink="http://www.w3.org/1999/xlink" x="0px" y="0px"
	 viewBox="0 0 640 640" style="enable-background:new 0 0 640 640;" xml:space="preserve">
<style type="text/css">
	.st0{fill:#0D0F0F;}
</style>
<path class="st0" d="M301.2,99c-4.2-1.9-8.7-2.9-13.2-2.9c-7.7,0-15.3,2.9-21.3,8.2l-135,119.8H48c-26.5,0-48,21.5-48,48V368
	c0,26.5,21.5,48,48,48h83.8l134.9,119.8c6,5.3,13.6,8.1,21.3,8.1c4.4,0,9-0.9,13.2-2.8c11.5-5.2,18.8-16.6,18.8-29.1V128.1
	C320,115.5,312.7,104.1,301.2,99z M272,476.1L150.1,367.9H48v-95.8h102.1L272,163.8V476.1z M412.6,246c-4.5-3.6-9.9-5.4-15.2-5.4
	c-7,0-13.8,3-18.5,8.8c-8.4,10.2-6.9,25.3,3.4,33.7c11.3,9.3,17.8,22.7,17.8,36c0,14.2-6.5,27.6-17.8,36.8
	c-10.3,8.4-11.8,23.5-3.4,33.7c4.7,5.8,11.6,8.8,18.6,8.8c5.3,0,10.8-1.8,15.2-5.4c22.5-17.6,35.4-44.5,35.4-74
	S435.1,264.4,412.6,246z M473.1,172.2c-4.5-3.6-9.8-5.4-15.2-5.4c-6.9,0-13.8,3-18.6,8.8c-8.4,10.2-6.9,25.4,3.3,33.7
	c33.9,26.8,53.3,68,53.3,109.8c0,42.6-19.4,82.1-53.3,110.7c-10.3,8.4-11.8,23.5-3.3,33.7c4.8,5.8,11.6,8.8,18.6,8.8
	c5.4,0,10.8-1.8,15.2-5.4c45.1-36,70.9-89.9,70.9-147.8S518.2,209,473.1,172.2z M534.4,97.4c-4.5-3.6-9.9-5.4-15.2-5.4
	c-6.9,0-13.8,3-18.6,8.7c-8.4,10.2-6.9,25.3,3.3,33.7c56,45.8,88.1,113.4,88.1,184.6s-32.1,139.7-88.1,185.5
	c-10.3,8.4-11.8,23.5-3.3,33.7c4.7,6.7,11.6,9.7,18.6,9.7c5.4,0,10.8-1.8,15.2-5.4c67.1-55,105.6-136.1,105.6-223.5
	C640,233.5,601.5,152.3,534.4,97.4z"/>
</svg>
